solid OpenSCAD_Model
  facet normal -1 0 0
    outer loop
      vertex 3.5 -1.11022e-16 -0.5
      vertex 3.5 -21.5 -0.5
      vertex 3.5 2.33147e-15 10.5
    endloop
  endfacet
  facet normal -1 0 0
    outer loop
      vertex 3.5 2.33147e-15 10.5
      vertex 3.5 -21.5 -0.5
      vertex 3.5 -21.5 24.5
    endloop
  endfacet
  facet normal -1 0 0
    outer loop
      vertex 3.5 3.66374e-15 16.5
      vertex 3.5 -21.5 24.5
      vertex 3.5 5.44009e-15 24.5
    endloop
  endfacet
  facet normal -1 0 0
    outer loop
      vertex 3.5 -3 13.5
      vertex 3.5 -21.5 24.5
      vertex 3.5 3.66374e-15 16.5
    endloop
  endfacet
  facet normal -1 0 0
    outer loop
      vertex 3.5 2.33147e-15 10.5
      vertex 3.5 -21.5 24.5
      vertex 3.5 -3 13.5
    endloop
  endfacet
  facet normal 0 -2.22045e-16 -1
    outer loop
      vertex 3.5 -1.11022e-16 -0.5
      vertex 135.5 -1.11022e-16 -0.5
      vertex 3.5 -21.5 -0.5
    endloop
  endfacet
  facet normal 0 -2.22045e-16 -1
    outer loop
      vertex 3.5 -21.5 -0.5
      vertex 135.5 -1.11022e-16 -0.5
      vertex 135.5 -21.5 -0.5
    endloop
  endfacet
  facet normal 0 1 -2.22045e-16
    outer loop
      vertex 3.5 -1.11022e-16 -0.5
      vertex 3.5 2.33147e-15 10.5
      vertex 135.5 -1.11022e-16 -0.5
    endloop
  endfacet
  facet normal 0 1 -2.22045e-16
    outer loop
      vertex 135.5 -1.11022e-16 -0.5
      vertex 3.5 2.33147e-15 10.5
      vertex 62.5 2.33147e-15 10.5
    endloop
  endfacet
  facet normal 0 1 -2.22045e-16
    outer loop
      vertex 135.5 -1.11022e-16 -0.5
      vertex 62.5 2.33147e-15 10.5
      vertex 135.5 2.33147e-15 10.5
    endloop
  endfacet
  facet normal 1.57009e-16 0.707107 0.707107
    outer loop
      vertex 135.5 -3 13.5
      vertex 135.5 -1.38778e-14 10.5
      vertex 3.5 -3 13.5
    endloop
  endfacet
  facet normal 1.57009e-16 0.707107 0.707107
    outer loop
      vertex 3.5 -3 13.5
      vertex 135.5 -1.38778e-14 10.5
      vertex 62.5 2.33147e-15 10.5
    endloop
  endfacet
  facet normal 1.57009e-16 0.707107 0.707107
    outer loop
      vertex 3.5 -3 13.5
      vertex 62.5 2.33147e-15 10.5
      vertex 3.5 2.33147e-15 10.5
    endloop
  endfacet
  facet normal 1.57009e-16 0.707107 -0.707107
    outer loop
      vertex 62.5 3.66374e-15 16.5
      vertex 135.5 -1.25455e-14 16.5
      vertex 3.5 3.66374e-15 16.5
    endloop
  endfacet
  facet normal 1.57009e-16 0.707107 -0.707107
    outer loop
      vertex 3.5 3.66374e-15 16.5
      vertex 135.5 -1.25455e-14 16.5
      vertex 135.5 -3 13.5
    endloop
  endfacet
  facet normal 1.57009e-16 0.707107 -0.707107
    outer loop
      vertex 3.5 3.66374e-15 16.5
      vertex 135.5 -3 13.5
      vertex 3.5 -3 13.5
    endloop
  endfacet
  facet normal 0 1 -2.22045e-16
    outer loop
      vertex 3.5 3.66374e-15 16.5
      vertex 3.5 5.44009e-15 24.5
      vertex 62.5 3.66374e-15 16.5
    endloop
  endfacet
  facet normal 0 1 -2.22045e-16
    outer loop
      vertex 62.5 3.66374e-15 16.5
      vertex 3.5 5.44009e-15 24.5
      vertex 135.5 5.44009e-15 24.5
    endloop
  endfacet
  facet normal 0 1 -2.22045e-16
    outer loop
      vertex 62.5 3.66374e-15 16.5
      vertex 135.5 5.44009e-15 24.5
      vertex 135.5 3.66374e-15 16.5
    endloop
  endfacet
  facet normal 0 2.22045e-16 1
    outer loop
      vertex 6.5 -18.5 24.5
      vertex 3.5 5.44009e-15 24.5
      vertex 3.5 -21.5 24.5
    endloop
  endfacet
  facet normal 0 2.22045e-16 1
    outer loop
      vertex 6.5 -18.5 24.5
      vertex 6.5 -6 24.5
      vertex 3.5 5.44009e-15 24.5
    endloop
  endfacet
  facet normal 0 2.22045e-16 1
    outer loop
      vertex 7.76 -18.5 24.5
      vertex 6.5 -18.5 24.5
      vertex 3.5 -21.5 24.5
    endloop
  endfacet
  facet normal 0 2.22045e-16 1
    outer loop
      vertex 135.5 5.44009e-15 24.5
      vertex 3.5 5.44009e-15 24.5
      vertex 6.5 -6 24.5
    endloop
  endfacet
  facet normal 0 2.22045e-16 1
    outer loop
      vertex 132.5 -18.5 24.5
      vertex 135.5 5.44009e-15 24.5
      vertex 132.5 -6 24.5
    endloop
  endfacet
  facet normal 0 2.22045e-16 1
    outer loop
      vertex 135.5 -21.5 24.5
      vertex 135.5 5.44009e-15 24.5
      vertex 132.5 -18.5 24.5
    endloop
  endfacet
  facet normal 0 2.22045e-16 1
    outer loop
      vertex 135.5 -21.5 24.5
      vertex 132.5 -18.5 24.5
      vertex 131.24 -21.5 24.5
    endloop
  endfacet
  facet normal 0 2.22045e-16 1
    outer loop
      vertex 131.24 -18.5 24.5
      vertex 131.24 -21.5 24.5
      vertex 132.5 -18.5 24.5
    endloop
  endfacet
  facet normal 0 2.22045e-16 1
    outer loop
      vertex 7.76 -21.5 24.5
      vertex 7.76 -18.5 24.5
      vertex 3.5 -21.5 24.5
    endloop
  endfacet
  facet normal 0 2.22045e-16 1
    outer loop
      vertex 6.5 -6 24.5
      vertex 132.5 -6 24.5
      vertex 135.5 5.44009e-15 24.5
    endloop
  endfacet
  facet normal 0 -1 2.22045e-16
    outer loop
      vertex 7.76 -21.5 4.26
      vertex 3.5 -21.5 -0.5
      vertex 135.5 -21.5 -0.5
    endloop
  endfacet
  facet normal 0 -1 2.22045e-16
    outer loop
      vertex 7.76 -21.5 4.26
      vertex 7.76 -21.5 24.5
      vertex 3.5 -21.5 24.5
    endloop
  endfacet
  facet normal 0 -1 2.22045e-16
    outer loop
      vertex 135.5 -21.5 24.5
      vertex 131.24 -21.5 24.5
      vertex 135.5 -21.5 -0.5
    endloop
  endfacet
  facet normal 0 -1 2.22045e-16
    outer loop
      vertex 131.24 -21.5 24.5
      vertex 131.24 -21.5 4.26
      vertex 135.5 -21.5 -0.5
    endloop
  endfacet
  facet normal 0 -1 2.22045e-16
    outer loop
      vertex 3.5 -21.5 24.5
      vertex 3.5 -21.5 -0.5
      vertex 7.76 -21.5 4.26
    endloop
  endfacet
  facet normal 0 -1 2.22045e-16
    outer loop
      vertex 131.24 -21.5 4.26
      vertex 7.76 -21.5 4.26
      vertex 135.5 -21.5 -0.5
    endloop
  endfacet
  facet normal 1 0 0
    outer loop
      vertex 135.5 -1.38778e-14 10.5
      vertex 135.5 -1.11022e-16 -0.5
      vertex 135.5 2.33147e-15 10.5
    endloop
  endfacet
  facet normal 1 0 0
    outer loop
      vertex 135.5 -21.5 -0.5
      vertex 135.5 -1.11022e-16 -0.5
      vertex 135.5 -1.38778e-14 10.5
    endloop
  endfacet
  facet normal 1 0 0
    outer loop
      vertex 135.5 -1.25455e-14 16.5
      vertex 135.5 -21.5 -0.5
      vertex 135.5 -3 13.5
    endloop
  endfacet
  facet normal 1 0 0
    outer loop
      vertex 135.5 5.44009e-15 24.5
      vertex 135.5 -21.5 -0.5
      vertex 135.5 -1.25455e-14 16.5
    endloop
  endfacet
  facet normal 1 0 0
    outer loop
      vertex 135.5 5.44009e-15 24.5
      vertex 135.5 -1.25455e-14 16.5
      vertex 135.5 3.66374e-15 16.5
    endloop
  endfacet
  facet normal 1 0 0
    outer loop
      vertex 135.5 -21.5 24.5
      vertex 135.5 -21.5 -0.5
      vertex 135.5 5.44009e-15 24.5
    endloop
  endfacet
  facet normal 1 0 0
    outer loop
      vertex 135.5 -1.38778e-14 10.5
      vertex 135.5 -3 13.5
      vertex 135.5 -21.5 -0.5
    endloop
  endfacet
  facet normal -1.57009e-16 -0.707107 0.707107
    outer loop
      vertex 135.5 -1.38778e-14 10.5
      vertex 135.5 2.33147e-15 10.5
      vertex 62.5 2.33147e-15 10.5
    endloop
  endfacet
  facet normal -1.57009e-16 -0.707107 -0.707107
    outer loop
      vertex 135.5 3.66374e-15 16.5
      vertex 135.5 -1.25455e-14 16.5
      vertex 62.5 3.66374e-15 16.5
    endloop
  endfacet
  facet normal -1 0 0
    outer loop
      vertex 131.24 -21.5 24.5
      vertex 131.24 -18.5 24.5
      vertex 131.24 -21.5 4.26
    endloop
  endfacet
  facet normal -1 0 0
    outer loop
      vertex 131.24 -21.5 4.26
      vertex 131.24 -18.5 24.5
      vertex 131.24 -18.5 4.26
    endloop
  endfacet
  facet normal 0 1 -2.22045e-16
    outer loop
      vertex 7.76 -18.5 24.5
      vertex 7.76 -18.5 4.26
      vertex 6.5 -18.5 24.5
    endloop
  endfacet
  facet normal 0 1 -2.22045e-16
    outer loop
      vertex 6.5 -18.5 2.5
      vertex 7.76 -18.5 4.26
      vertex 132.5 -18.5 2.5
    endloop
  endfacet
  facet normal 0 1 -2.22045e-16
    outer loop
      vertex 132.5 -18.5 24.5
      vertex 131.24 -18.5 4.26
      vertex 131.24 -18.5 24.5
    endloop
  endfacet
  facet normal 0 1 -2.22045e-16
    outer loop
      vertex 132.5 -18.5 2.5
      vertex 131.24 -18.5 4.26
      vertex 132.5 -18.5 24.5
    endloop
  endfacet
  facet normal 0 1 -2.22045e-16
    outer loop
      vertex 7.76 -18.5 4.26
      vertex 131.24 -18.5 4.26
      vertex 132.5 -18.5 2.5
    endloop
  endfacet
  facet normal 0 1 -2.22045e-16
    outer loop
      vertex 6.5 -18.5 24.5
      vertex 7.76 -18.5 4.26
      vertex 6.5 -18.5 2.5
    endloop
  endfacet
  facet normal -1 0 0
    outer loop
      vertex 132.5 -18.5 24.5
      vertex 132.5 -6 24.5
      vertex 132.5 -18.5 2.5
    endloop
  endfacet
  facet normal -1 0 0
    outer loop
      vertex 132.5 -18.5 2.5
      vertex 132.5 -6 24.5
      vertex 132.5 -6 2.5
    endloop
  endfacet
  facet normal 0 -1 2.22045e-16
    outer loop
      vertex 132.5 -6 2.5
      vertex 132.5 -6 24.5
      vertex 6.5 -6 24.5
    endloop
  endfacet
  facet normal 0 -1 2.22045e-16
    outer loop
      vertex 6.5 -6 2.5
      vertex 132.5 -6 2.5
      vertex 6.5 -6 24.5
    endloop
  endfacet
  facet normal 1 0 0
    outer loop
      vertex 6.5 -6 24.5
      vertex 6.5 -18.5 24.5
      vertex 6.5 -18.5 2.5
    endloop
  endfacet
  facet normal 1 0 0
    outer loop
      vertex 6.5 -6 2.5
      vertex 6.5 -6 24.5
      vertex 6.5 -18.5 2.5
    endloop
  endfacet
  facet normal 1 0 0
    outer loop
      vertex 7.76 -18.5 24.5
      vertex 7.76 -21.5 24.5
      vertex 7.76 -21.5 4.26
    endloop
  endfacet
  facet normal 1 0 0
    outer loop
      vertex 7.76 -18.5 4.26
      vertex 7.76 -18.5 24.5
      vertex 7.76 -21.5 4.26
    endloop
  endfacet
  facet normal 0 2.22045e-16 1
    outer loop
      vertex 7.76 -21.5 4.26
      vertex 131.24 -21.5 4.26
      vertex 131.24 -18.5 4.26
    endloop
  endfacet
  facet normal 0 2.22045e-16 1
    outer loop
      vertex 7.76 -18.5 4.26
      vertex 7.76 -21.5 4.26
      vertex 131.24 -18.5 4.26
    endloop
  endfacet
  facet normal 0 2.22045e-16 1
    outer loop
      vertex 6.5 -18.5 2.5
      vertex 132.5 -18.5 2.5
      vertex 132.5 -6 2.5
    endloop
  endfacet
  facet normal 0 2.22045e-16 1
    outer loop
      vertex 6.5 -6 2.5
      vertex 6.5 -18.5 2.5
      vertex 132.5 -6 2.5
    endloop
  endfacet
endsolid OpenSCAD_Model
